SplineFontDB: 3.2
FontName: EdgeTX_extra
FullName: EdgeTX_extra
FamilyName: EdgeTX_extra
Weight: Regular
Copyright: Copyright (c) 2022, gagarin , mhotar
UComments: "2022-2-5: Created with FontForge (http://fontforge.org)"
Version: 002.000
ItalicAngle: 0
UnderlinePosition: -200
UnderlineWidth: 100
Ascent: 1536
Descent: 512
InvalidEm: 0
LayerCount: 2
Layer: 0 0 "Hinten" 1
Layer: 1 0 "Vorne" 0
XUID: [1021 779 755253580 15286]
StyleMap: 0x0000
FSType: 0
OS2Version: 0
OS2_WeightWidthSlopeOnly: 0
OS2_UseTypoMetrics: 1
CreationTime: 1644084515
ModificationTime: 1647028007
PfmFamily: 17
TTFWeight: 200
TTFWidth: 5
LineGap: 736
VLineGap: 0
OS2TypoAscent: 0
OS2TypoAOffset: 1
OS2TypoDescent: 0
OS2TypoDOffset: 1
OS2TypoLinegap: 184
OS2WinAscent: 0
OS2WinAOffset: 1
OS2WinDescent: 0
OS2WinDOffset: 1
HheadAscent: 0
HheadAOffset: 1
HheadDescent: 0
HheadDOffset: 1
OS2Vendor: 'PfEd'
MarkAttachClasses: 1
DEI: 91125
LangName: 1033
Encoding: ISO8859-1
UnicodeInterp: none
NameList: AGL For New Fonts
DisplaySize: -48
AntiAlias: 1
FitToEm: 0
WinInfo: 0 25 13
BeginPrivate: 0
EndPrivate
TeXData: 1 0 0 346030 173015 115343 0 1048576 115343 783286 444596 497025 792723 393216 433062 380633 303038 157286 324010 404750 52429 2506097 1059062 262144
BeginChars: 256 26

StartChar: uni0080
Encoding: 128 128 2
Width: 1215
Flags: HW
LayerCount: 2
Fore
SplineSet
777 1095 m 0
 796 1095 811 1089 824 1076 c 2
 1133 766 l 1
 826 459 l 2
 813 446 797.338756083 439.245117188 779.014648438 439.245117188 c 0
 761.075745627 439.245117188 745.756710028 445.594833125 733.057541642 458.294264998 c 128
 720.358373255 470.993696871 714.008789062 486.312926247 714.008789062 504.251953125 c 0
 714.008789062 522.552299894 720.578776041 538.088758227 733.71875 550.861328125 c 2
 885.751953125 702.89453125 l 1
 145.08984375 702.89453125 l 2
 144.778320313 702.889648437 144.466471354 702.887369791 144.154296875 702.887695312 c 0
 126.214956146 702.887695312 110.895648308 709.237398658 98.19637336 721.93680535 c 128
 85.4970984117 734.636212042 79.1474609375 749.955454009 79.1474609375 767.89453125 c 128
 79.1474609375 785.833608491 85.4970984117 801.152850458 98.19637336 813.85225715 c 128
 110.895648308 826.551663842 126.214956146 832.901367188 144.154296875 832.901367188 c 4
 144.466796875 832.901367188 144.778645833 832.899088542 145.08984375 832.89453125 c 2
 882.826171875 832.89453125 l 1
 732.14453125 983.576171875 l 2
 719.014973958 996.338616365 712.450195312 1011.87605126 712.450195312 1030.18847656 c 0
 712.450195312 1048.1221835 718.796333633 1063.43800765 731.488610276 1076.13594902 c 128
 744.180886918 1088.83389039 759 1095 777 1095 c 0
EndSplineSet
Validated: 1
EndChar

StartChar: uni0081
Encoding: 129 129 3
Width: 1215
Flags: HW
LayerCount: 2
Fore
SplineSet
432 1095 m 0
 433 1095 433 1095 434 1095 c 0
 452 1095 467 1089 480 1076 c 128
 493 1063 499 1048 499 1030 c 0
 499 1012 493 996 479 984 c 2
 327 832 l 1
 1068 832 l 2
 1068 832 1069 832 1069 832 c 0
 1087 832 1102 825 1115 813 c 128
 1128 800 1134 784 1134 767 c 128
 1134 749 1128 733 1115 721 c 128
 1102 708 1087 702 1069 702 c 0
 1069 702 1068 702 1068 702 c 2
 330 702 l 1
 481 551 l 2
 494 538 501 523 501 504 c 0
 501 486 494 471 482 458 c 128
 469 446 454 439 436 439 c 0
 417 439 402 446 389 459 c 2
 80 768 l 1
 387 1076 l 2
 400 1088 415 1095 432 1095 c 0
EndSplineSet
Validated: 1
EndChar

StartChar: uni0082
Encoding: 130 130 4
Width: 824
Flags: HW
LayerCount: 2
Fore
SplineSet
411 1475 m 1
 718 1168 l 2
 732 1155 738 1140 738 1121 c 0
 738 1103 732 1088 719 1075 c 128
 706 1063 691 1056 673 1056 c 0
 655 1056 639 1063 626 1076 c 2
 474 1228 l 1
 474 69 l 2
 474 68 474 68 474 68 c 0
 474 50 468 34 455 22 c 128
 443 9 427 3 409 3 c 128
 391 3 376 9 363 22 c 128
 351 34 344 50 344 68 c 0
 344 68 344 68 344 69 c 2
 344 1225 l 1
 194 1074 l 2
 181 1061 165 1055 147 1055 c 0
 129 1055 114 1061 101 1074 c 128
 88 1087 82 1102 82 1120 c 0
 82 1138 89 1154 102 1166 c 2
 411 1475 l 1
EndSplineSet
Validated: 1
EndChar

StartChar: uni0083
Encoding: 131 131 5
Width: 824
Flags: HW
LayerCount: 2
Fore
SplineSet
409 1473 m 0
 409 1473 409 1473 410 1473 c 0
 428 1473 443 1467 456 1454 c 128
 469 1441 475 1426 475 1408 c 0
 475 1408 475 1407 475 1407 c 2
 475 251 l 1
 626 401 l 2
 638 414 653 420 671 421 c 0
 671 421 672 421 672 421 c 0
 690 421 706 415 718 402 c 128
 731 389 737 374 737 356 c 0
 737 338 731 322 718 309 c 2
 409 0 l 1
 101 308 l 2
 88 320 82 336 82 354 c 0
 82 372 88 388 101 400 c 128
 113 413 129 419 147 419 c 0
 165 419 180 413 193 400 c 2
 345 248 l 1
 345 1407 l 2
 345 1408 345 1408 345 1408 c 0
 345 1426 351 1441 364 1454 c 128
 376 1466 391 1473 409 1473 c 0
EndSplineSet
Validated: 1
EndChar

StartChar: uni0084
Encoding: 132 132 6
Width: 1215
Flags: HW
LayerCount: 2
Fore
SplineSet
704 1259 m 2
 1141 1259 l 1
 1141 824 l 2
 1141 824 1141 824 1141 823 c 0
 1141 805 1134 790 1122 777 c 128
 1109 765 1094 758 1076 758 c 128
 1058 758 1042 765 1030 777 c 128
 1017 790 1011 805 1011 823 c 0
 1011 824 1011 824 1011 824 c 2
 1011 1039 l 1
 191 220 l 2
 178 206 163 200 144 200 c 0
 126 200 111 206 98 219 c 128
 86 232 79 247 79 265 c 0
 79 283 86 299 99 311 c 2
 917 1129 l 1
 704 1129 l 2
 703 1129 703 1129 703 1129 c 0
 685 1129 669 1136 657 1148 c 128
 644 1161 638 1176 638 1194 c 128
 638 1212 644 1227 657 1240 c 128
 669 1253 685 1259 703 1259 c 0
 703 1259 703 1259 704 1259 c 2
EndSplineSet
Validated: 1
EndChar

StartChar: uni0085
Encoding: 133 133 7
Width: 1215
Flags: HW
LayerCount: 2
Fore
SplineSet
704 200 m 2
 703 200 703 200 703 200 c 0
 685 200 669 206 657 219 c 128
 644 232 638 247 638 265 c 128
 638 283 644 298 657 311 c 128
 669 324 685 330 703 330 c 0
 703 330 703 330 704 330 c 2
 917 330 l 5
 99 1148 l 6
 86 1160 79 1176 79 1194 c 0
 79 1212 86 1227 98 1240 c 128
 111 1253 126 1259 144 1259 c 0
 163 1259 178 1253 191 1240 c 2
 1011 420 l 1
 1011 635 l 2
 1011 635 1011 635 1011 636 c 0
 1011 654 1017 669 1030 682 c 128
 1042 694 1058 701 1076 701 c 128
 1094 701 1109 694 1122 682 c 128
 1134 669 1141 654 1141 636 c 0
 1141 635 1141 635 1141 635 c 2
 1141 200 l 1
 704 200 l 2
EndSplineSet
Validated: 1
EndChar

StartChar: uni0086
Encoding: 134 134 8
Width: 1215
Flags: HW
LayerCount: 2
Fore
SplineSet
516 200 m 2
 79 200 l 1
 79 635 l 2
 79 635 79 635 79 636 c 0
 79 654 86 669 98 682 c 128
 111 694 126 701 144 701 c 128
 162 701 178 694 190 682 c 128
 203 669 209 654 209 636 c 0
 209 635 209 635 209 635 c 2
 209 420 l 1
 1029 1240 l 2
 1042 1253 1057 1259 1076 1259 c 0
 1094 1259 1109 1253 1122 1240 c 128
 1134 1227 1141 1212 1141 1194 c 0
 1141 1176 1134 1160 1121 1148 c 2
 303 330 l 1
 516 330 l 2
 517 330 517 330 517 330 c 0
 535 330 551 324 563 311 c 128
 576 298 582 283 582 265 c 128
 582 247 576 232 563 219 c 128
 551 206 535 200 517 200 c 0
 517 200 517 200 516 200 c 2
EndSplineSet
Validated: 1
EndChar

StartChar: uni0087
Encoding: 135 135 9
Width: 1215
Flags: HW
LayerCount: 2
Fore
SplineSet
516 1259 m 2
 517 1259 517 1259 517 1259 c 0
 535 1259 551 1253 563 1240 c 128
 576 1227 582 1212 582 1194 c 128
 582 1176 576 1161 563 1148 c 128
 551 1136 535 1129 517 1129 c 0
 517 1129 517 1129 516 1129 c 2
 303 1129 l 1
 1121 311 l 2
 1134 299 1141 283 1141 265 c 0
 1141 247 1134 232 1122 219 c 128
 1109 206 1094 200 1076 200 c 0
 1057 200 1042 206 1029 220 c 2
 209 1039 l 1
 209 824 l 2
 209 824 209 824 209 823 c 0
 209 805 203 790 190 777 c 128
 178 765 162 758 144 758 c 128
 126 758 111 765 98 777 c 128
 86 790 79 805 79 823 c 0
 79 824 79 824 79 824 c 2
 79 1259 l 1
 516 1259 l 2
EndSplineSet
Validated: 1
EndChar

StartChar: uni0088
Encoding: 136 136 10
Width: 1400
Flags: HW
LayerCount: 2
Fore
SplineSet
679 733 m 5
 341 151 l 5
 1019 151 l 5
 679 733 l 5
81 1 m 1
 679 1031 l 1
 1280 1 l 1
 81 1 l 1
EndSplineSet
Validated: 1
EndChar

StartChar: uni008A
Encoding: 138 138 11
Width: 1798
Flags: HW
LayerCount: 2
Fore
SplineSet
1248 1113 m 2
 1154 1197 l 2
 1149 1202 1146 1208 1145 1216 c 128
 1145 1223 1147 1230 1152 1235 c 2
 1271 1367 l 2
 1276 1372 1282 1375 1289 1375 c 128
 1297 1376 1303 1373 1309 1369 c 2
 1402 1284 l 2
 1408 1279 1411 1273 1411 1266 c 128
 1411 1258 1409 1252 1404 1246 c 2
 1286 1115 l 2
 1281 1109 1274 1106 1267 1106 c 128
 1260 1106 1253 1108 1248 1113 c 2
1347 945 m 2
 1290 1057 l 2
 1287 1064 1286 1071 1289 1078 c 128
 1291 1085 1295 1090 1302 1093 c 2
 1460 1174 l 2
 1466 1177 1473 1178 1480 1175 c 128
 1487 1173 1493 1169 1496 1162 c 2
 1553 1050 l 2
 1556 1043 1557 1036 1555 1029 c 128
 1552 1022 1548 1017 1541 1014 c 2
 1384 933 l 2
 1377 930 1370 929 1363 932 c 128
 1356 934 1351 939 1347 945 c 2
1380 753 m 2
 1367 878 l 2
 1367 885 1368 892 1373 898 c 128
 1378 903 1384 907 1391 907 c 2
 1567 926 l 2
 1575 927 1581 925 1587 920 c 128
 1593 915 1596 909 1597 902 c 2
 1610 777 l 2
 1611 769 1609 763 1604 757 c 128
 1599 751 1593 748 1586 747 c 2
 1410 729 l 2
 1403 728 1396 730 1390 735 c 128
 1384 739 1381 745 1380 753 c 2
1342 561 m 2
 1375 683 l 2
 1377 690 1381 696 1387 699 c 128
 1394 703 1401 704 1408 702 c 2
 1579 656 l 2
 1586 654 1591 650 1595 644 c 128
 1599 637 1600 630 1598 623 c 2
 1565 502 l 2
 1563 494 1559 489 1553 485 c 128
 1546 482 1539 481 1532 483 c 2
 1361 528 l 2
 1354 530 1349 535 1345 541 c 128
 1341 547 1340 554 1342 561 c 2
1238 396 m 2
 1312 498 l 2
 1316 504 1322 508 1330 509 c 128
 1337 510 1344 508 1350 504 c 2
 1493 400 l 2
 1499 396 1502 390 1504 382 c 128
 1505 375 1503 368 1499 362 c 2
 1425 261 l 2
 1420 255 1415 251 1407 250 c 128
 1400 249 1393 250 1387 255 c 2
 1244 359 l 2
 1238 363 1234 369 1233 376 c 128
 1232 384 1234 390 1238 396 c 2
1082 280 m 2
 1187 348 l 2
 1193 352 1200 353 1207 352 c 128
 1215 350 1220 347 1224 340 c 2
 1321 192 l 2
 1325 186 1326 179 1325 172 c 128
 1323 164 1319 159 1313 155 c 2
 1207 86 l 2
 1201 82 1194 81 1187 82 c 128
 1180 84 1174 88 1170 94 c 2
 1074 243 l 2
 1070 249 1069 256 1070 263 c 128
 1072 270 1075 276 1082 280 c 2
894 227 m 2
 1017 253 l 2
 1024 254 1031 253 1037 249 c 128
 1043 245 1047 239 1049 232 c 2
 1086 59 l 2
 1087 52 1086 45 1082 39 c 128
 1078 33 1072 29 1065 27 c 2
 942 1 l 2
 935 -0 928 1 922 5 c 128
 915 9 911 15 910 22 c 2
 873 195 l 2
 872 202 873 209 877 215 c 128
 881 221 887 225 894 227 c 2
700 245 m 2
 824 225 l 2
 831 224 837 220 841 214 c 128
 846 208 847 202 846 194 c 2
 818 19 l 2
 817 12 814 6 808 2 c 128
 802 -2 795 -4 788 -3 c 2
 663 17 l 2
 656 18 650 22 646 28 c 128
 641 34 640 40 641 48 c 2
 669 222 l 2
 670 230 673 236 679 240 c 128
 685 244 692 246 700 245 c 2
524 331 m 2
 633 268 l 2
 640 264 644 259 646 252 c 128
 648 245 647 238 643 231 c 2
 555 78 l 2
 551 72 546 68 538 66 c 128
 531 64 524 65 518 68 c 2
 409 131 l 2
 403 135 398 140 396 148 c 128
 395 155 395 162 399 168 c 2
 488 321 l 2
 491 328 497 332 504 334 c 128
 511 336 518 335 524 331 c 2
392 474 m 2
 471 377 l 2
 476 371 478 364 477 357 c 128
 476 350 473 344 467 339 c 2
 330 228 l 2
 324 223 317 221 310 222 c 128
 302 222 296 226 292 232 c 2
 213 329 l 2
 208 335 206 342 207 349 c 128
 208 356 211 362 217 367 c 2
 354 478 l 2
 360 483 367 485 374 484 c 128
 381 484 387 480 392 474 c 2
320 656 m 2
 359 536 l 2
 361 529 360 522 357 516 c 128
 354 509 348 504 341 502 c 2
 173 448 l 2
 166 445 159 446 152 449 c 128
 146 453 141 458 139 465 c 2
 100 584 l 2
 98 592 98 598 102 605 c 128
 105 612 110 616 117 618 c 2
 286 673 l 2
 293 675 300 675 306 671 c 128
 313 668 317 663 320 656 c 2
317 851 m 2
 311 725 l 2
 310 718 307 712 302 707 c 128
 296 702 290 699 282 700 c 2
 106 709 l 2
 98 710 92 712 87 718 c 128
 82 724 80 730 80 737 c 2
 87 863 l 2
 87 870 90 877 96 882 c 128
 101 887 108 889 115 888 c 2
 292 879 l 2
 299 879 305 876 310 870 c 128
 315 865 318 858 317 851 c 2
385 1034 m 2
 334 919 l 2
 331 912 326 907 319 905 c 128
 312 902 305 902 298 905 c 2
 136 977 l 2
 130 980 125 985 122 992 c 128
 120 999 120 1006 123 1013 c 2
 174 1128 l 2
 177 1135 182 1139 189 1142 c 128
 196 1145 203 1144 209 1141 c 2
 371 1069 l 2
 378 1066 383 1061 385 1054 c 128
 388 1048 388 1041 385 1034 c 2
513 1181 m 2
 425 1092 l 2
 419 1086 413 1084 405 1084 c 128
 398 1084 392 1086 386 1092 c 2
 261 1217 l 2
 256 1222 253 1228 253 1236 c 128
 253 1243 256 1250 261 1255 c 2
 350 1344 l 2
 356 1349 362 1352 369 1352 c 128
 377 1352 383 1349 388 1344 c 2
 514 1219 l 2
 519 1213 521 1207 521 1200 c 128
 521 1192 519 1186 513 1181 c 2
471 1477 m 1
 1178 1477 l 1
 892 1051 l 1
 851 989 l 1
 471 1477 l 1
EndSplineSet
Validated: 1
EndChar

StartChar: uni008B
Encoding: 139 139 12
Width: 1727
Flags: HW
LayerCount: 2
Fore
SplineSet
464 1459 m 1
 564 1364 l 1
 655 1404 749 1423 848 1423 c 0
 848 1423 l 2
 942 1423 1033 1405 1120 1369 c 128
 1207 1333 1284 1282 1351 1215 c 128
 1418 1148 1469 1071 1505 984 c 128
 1541 897 1559 806 1559 712 c 128
 1559 617 1541 526 1505 439 c 128
 1469 352 1418 275 1351 208 c 128
 1284 142 1207 90 1120 54 c 128
 1033 18 942 -0 848 -0 c 128
 753 -0 662 18 575 54 c 128
 488 90 411 142 344 208 c 128
 278 275 226 352 190 439 c 128
 154 526 136 617 136 712 c 0
 136 810 156 904 195 994 c 1
 105 1080 l 2
 89 1095 81 1113 81 1134 c 0
 81 1154 88 1172 102 1186 c 2
 358 1456 l 2
 373 1472 393 1480 413 1480 c 0
 431 1480 450 1473 464 1459 c 1
416 1299 m 1
 262 1137 l 1
 447 961 l 1
 591 825 l 1
 744 987 l 1
 618 1107 l 1
 498 1220 l 1
 416 1299 l 1
848 1273 m 0
 792 1273 738 1265 685 1249 c 1
 716 1220 l 1
 902 1044 l 2
 917 1029 925 1011 925 989 c 0
 925 969 918 952 904 938 c 2
 648 668 l 2
 633 652 613 645 593 645 c 0
 575 645 556 651 542 665 c 2
 337 860 l 1
 313 882 l 1
 295 827 286 769 286 712 c 0
 286 637 301 564 329 497 c 128
 357 428 398 367 450 314 c 128
 503 262 564 221 633 193 c 128
 701 164 773 150 848 150 c 128
 922 150 994 164 1063 193 c 128
 1131 221 1192 262 1245 314 c 128
 1298 367 1338 428 1367 497 c 128
 1395 565 1409 637 1409 712 c 128
 1409 786 1395 858 1367 927 c 128
 1338 995 1297 1056 1245 1109 c 128
 1192 1161 1131 1202 1063 1231 c 128
 994 1259 922 1273 848 1273 c 0
EndSplineSet
Validated: 1
EndChar

StartChar: uni008C
Encoding: 140 140 13
Width: 1415
Flags: HW
LayerCount: 2
Fore
SplineSet
427 1484 m 1
 1355 1478 l 1
 1144 939 l 1
 842 726 l 1
 879 687 907 641 927 591 c 128
 947 540 957 487 957 432 c 0
 957 372 945 316 922 262 c 128
 899 208 868 161 829 122 c 128
 790 83 743 52 689 29 c 128
 635 5 578 -6 519 -6 c 128
 460 -6 404 5 350 29 c 128
 296 52 249 83 210 122 c 128
 171 161 140 208 116 262 c 128
 93 316 82 372 82 432 c 0
 82 522 107 603 157 677 c 128
 207 750 273 804 354 837 c 1
 272 983 l 1
 427 1484 l 1
1131 1303 m 1
 588 1300 l 1
 468 994 l 1
 570 704 l 1
 460 370 l 1
 357 353 l 1
 433 696 l 1
 428 705 l 1
 370 686 323 651 286 601 c 128
 250 551 232 495 232 432 c 0
 232 352 260 284 315 228 c 128
 371 172 439 144 519 144 c 128
 599 144 667 172 723 228 c 128
 779 284 807 352 807 432 c 0
 807 487 793 537 764 584 c 1
 686 418 l 1
 579 390 l 1
 728 785 l 1
 1010 1004 l 1
 1131 1303 l 1
EndSplineSet
Validated: 1
EndChar

StartChar: uni008D
Encoding: 141 141 14
Width: 1394
Flags: HW
LayerCount: 2
Fore
SplineSet
437 1476 m 1
 907 1476 l 1
 907 1269 l 1
 1168 1271 l 2
 1182 1271 1194 1267 1204 1257 c 128
 1214 1247 1219 1236 1219 1222 c 2
 1225 257 l 2
 1225 243 1221 231 1211 221 c 128
 1201 211 1190 206 1176 206 c 2
 907 204 l 1
 907 -0 l 1
 437 -0 l 1
 437 199 l 1
 140 196 l 2
 127 196 115 201 105 211 c 128
 95 220 90 232 90 246 c 2
 84 1211 l 2
 83 1225 88 1236 98 1246 c 128
 108 1256 119 1261 133 1261 c 2
 437 1264 l 1
 437 1476 l 1
1119 1171 m 1
 184 1162 l 1
 190 297 l 1
 1125 306 l 1
 1119 1171 l 1
379 984 m 1
 935 984 l 1
 935 834 l 1
 379 834 l 1
 379 984 l 1
379 639 m 1
 935 639 l 1
 935 489 l 1
 379 489 l 1
 379 639 l 1
EndSplineSet
Validated: 1
EndChar

StartChar: uni008E
Encoding: 142 142 15
Width: 1541
Flags: HW
LayerCount: 2
Fore
SplineSet
1068 1475 m 0
 1162 1475 1253 1458 1340 1423 c 0
 1360 1416 1376 1404 1388 1387 c 128
 1401 1369 1407 1350 1407 1328 c 0
 1407 1300 1397 1276 1377 1256 c 128
 1358 1237 1334 1227 1306 1227 c 0
 1291 1227 1278 1229 1265 1235 c 0
 1202 1260 1137 1272 1068 1272 c 0
 973 1272 886 1249 806 1203 c 128
 726 1156 663 1094 615 1015 c 1
 958 796 l 1
 586 510 l 1
 629 418 694 345 780 289 c 128
 867 233 962 205 1068 205 c 0
 1137 205 1202 217 1265 242 c 0
 1277 247 1290 250 1303 250 c 0
 1331 250 1355 240 1374 220 c 128
 1394 200 1404 176 1404 148 c 0
 1404 127 1398 108 1386 91 c 128
 1374 74 1359 61 1340 54 c 0
 1253 19 1162 2 1068 2 c 0
 931 2 806 37 691 107 c 128
 577 176 487 269 424 385 c 1
 82 122 l 1
 82 1264 l 1
 82 1357 l 1
 444 1125 l 1
 510 1232 598 1317 709 1380 c 128
 819 1444 939 1475 1068 1475 c 0
183 1172 m 1
 183 328 l 1
 782 788 l 1
 183 1172 l 1
EndSplineSet
Validated: 1
EndChar

StartChar: uni008F
Encoding: 143 143 16
Width: 1448
Flags: HW
LayerCount: 2
Fore
SplineSet
128 1476 m 2
 1246 1476 l 2
 1259 1476 1270 1471 1279 1462 c 128
 1289 1453 1293 1442 1293 1429 c 2
 1293 49 l 2
 1293 36 1289 25 1279 15 c 128
 1270 6 1259 2 1246 2 c 2
 128 2 l 2
 115 2 104 6 95 15 c 128
 86 25 81 36 81 49 c 2
 81 1429 l 2
 81 1442 86 1453 95 1462 c 128
 104 1471 115 1476 128 1476 c 2
175 1382 m 1
 175 95 l 1
 344 95 l 1
 338 103 336 112 336 122 c 2
 336 287 l 2
 336 300 340 311 350 320 c 128
 359 329 370 334 383 334 c 2
 548 334 l 2
 561 334 572 329 581 320 c 128
 590 311 595 300 595 287 c 2
 595 122 l 2
 595 112 592 103 587 95 c 1
 1199 95 l 1
 1199 919 l 1
 987 915 l 1
 727 1051 l 1
 648 1092 l 1
 973 1268 l 1
 1199 1274 l 1
 1199 1382 l 1
 585 1382 l 1
 585 1235 l 2
 585 1222 581 1211 572 1202 c 128
 562 1193 551 1188 538 1188 c 2
 374 1188 l 2
 361 1188 349 1193 340 1202 c 128
 331 1211 327 1222 327 1235 c 2
 327 1382 l 1
 175 1382 l 1
378 1080 m 2
 543 1080 l 2
 556 1080 567 1076 576 1067 c 128
 585 1057 590 1046 590 1033 c 2
 590 869 l 2
 590 856 585 844 576 835 c 128
 567 826 556 822 543 822 c 2
 378 822 l 2
 365 822 354 826 345 835 c 128
 336 844 331 856 331 869 c 2
 331 1033 l 2
 331 1046 336 1057 345 1067 c 128
 354 1076 365 1080 378 1080 c 2
378 696 m 2
 543 696 l 2
 556 695 567 691 576 682 c 128
 585 673 590 662 590 649 c 2
 590 484 l 2
 590 471 585 460 576 450 c 128
 567 441 556 437 543 437 c 2
 378 437 l 2
 365 437 354 441 345 450 c 128
 336 460 331 471 331 484 c 2
 331 649 l 2
 331 662 336 673 345 682 c 128
 354 691 365 695 378 696 c 2
EndSplineSet
Validated: 1
EndChar

StartChar: uni0090
Encoding: 144 144 17
Width: 1685
Flags: HW
LayerCount: 2
Fore
SplineSet
821 1476 m 128
 919 1476 1013 1457 1104 1420 c 128
 1195 1382 1275 1329 1345 1259 c 128
 1414 1190 1468 1110 1505 1019 c 128
 1543 928 1562 833 1562 735 c 128
 1562 637 1543 542 1505 452 c 128
 1468 361 1414 281 1345 211 c 128
 1275 142 1195 88 1104 51 c 128
 1013 13 919 -6 821 -6 c 128
 722 -6 628 13 537 51 c 128
 446 88 366 142 297 211 c 128
 227 281 174 361 136 452 c 128
 98 542 80 637 80 735 c 128
 80 833 98 928 136 1019 c 128
 174 1110 227 1190 297 1259 c 128
 366 1329 446 1382 537 1420 c 128
 628 1457 722 1476 821 1476 c 128
821 1326 m 0
 805 1326 789 1326 773 1324 c 1
 773 949 l 1
 843 948 l 1
 844 1326 l 1
 836 1326 828 1326 821 1326 c 0
950 1312 m 1
 950 895 l 2
 950 880 944 867 934 857 c 128
 924 847 911 841 896 842 c 2
 719 842 l 2
 705 842 692 847 682 858 c 128
 671 868 666 881 666 896 c 2
 667 1306 l 1
 565 1278 477 1227 403 1153 c 0
 347 1098 305 1034 275 961 c 128
 245 889 230 814 230 735 c 0
 230 648 248 565 285 486 c 1
 599 758 l 2
 611 767 624 772 638 770 c 128
 653 769 665 763 675 752 c 2
 790 618 l 2
 799 607 804 594 803 579 c 128
 801 564 795 552 784 543 c 2
 463 265 l 1
 568 184 688 144 821 144 c 0
 899 144 974 159 1047 189 c 128
 1119 219 1183 262 1238 317 c 0
 1241 320 1244 323 1247 326 c 1
 897 564 l 2
 885 572 878 584 875 598 c 128
 872 613 875 626 883 638 c 2
 983 784 l 2
 992 796 1003 804 1018 807 c 128
 1032 809 1045 807 1058 798 c 2
 1389 573 l 1
 1404 626 1412 680 1412 735 c 0
 1412 814 1397 889 1367 961 c 128
 1337 1034 1294 1098 1238 1153 c 0
 1158 1234 1062 1287 950 1312 c 1
1041 680 m 1
 1002 622 l 1
 1314 410 l 1
 1327 430 1339 450 1349 471 c 1
 1041 680 l 1
629 642 m 1
 339 392 l 1
 346 382 354 373 361 363 c 2
 383 338 l 1
 383 337 l 1
 675 589 l 1
 629 642 l 1
EndSplineSet
Validated: 1
EndChar

StartChar: uni0091
Encoding: 145 145 18
Width: 1679
Flags: HW
LayerCount: 2
Fore
SplineSet
498 1480 m 128
 571 1480 639 1462 702 1425 c 128
 764 1389 814 1340 850 1277 c 128
 886 1215 905 1147 905 1073 c 0
 905 1008 890 947 861 891 c 128
 832 834 792 787 742 749 c 1
 797 735 849 715 901 687 c 2
 923 675 l 1
 931 677 939 679 947 680 c 1
 916 730 901 785 901 844 c 0
 901 931 931 1005 993 1066 c 128
 1054 1128 1128 1158 1215 1158 c 128
 1301 1158 1375 1128 1437 1066 c 128
 1498 1005 1529 931 1529 844 c 0
 1529 785 1513 730 1482 680 c 128
 1451 631 1410 592 1359 566 c 1
 1423 505 1468 428 1496 335 c 128
 1513 278 1522 218 1522 155 c 0
 1522 116 1519 76 1512 35 c 1
 485 35 l 1
 477 -0 l 1
 99 -0 l 1
 89 59 l 2
 83 101 79 142 79 183 c 0
 79 232 84 280 94 327 c 128
 112 412 145 487 191 553 c 0
 234 612 285 660 347 696 c 1
 271 726 209 776 162 844 c 128
 115 913 91 989 91 1073 c 0
 91 1147 109 1215 146 1277 c 128
 182 1340 232 1389 294 1425 c 128
 357 1462 424 1480 498 1480 c 128
498 1338 m 128
 424 1338 362 1312 310 1261 c 128
 259 1209 233 1147 233 1073 c 128
 233 1000 259 937 310 886 c 128
 362 834 424 809 498 809 c 128
 571 809 634 834 685 886 c 128
 737 937 762 1000 762 1073 c 128
 762 1147 737 1209 685 1261 c 128
 634 1312 571 1338 498 1338 c 128
605 626 m 0
 478 626 378 574 305 472 c 0
 248 392 219 297 219 186 c 0
 219 171 220 155 221 139 c 1
 366 139 l 1
 393 238 435 328 494 410 c 128
 552 493 621 561 700 615 c 1
 668 622 636 626 605 626 c 0
EndSplineSet
Validated: 1
EndChar

StartChar: uni0092
Encoding: 146 146 19
Width: 1637
Flags: HW
LayerCount: 2
Fore
SplineSet
681 1474 m 1
 1311 882 l 1
 1427 775 l 1
 1269 775 l 1
 78 780 l 1
 82 1002 l 1
 1006 988 l 1
 597 1385 l 1
 681 1474 l 1
883 1 m 1
 254 592 l 1
 138 700 l 1
 296 700 l 1
 1487 694 l 1
 1483 472 l 1
 559 486 l 1
 968 89 l 1
 883 1 l 1
EndSplineSet
Validated: 1
EndChar

StartChar: uni0093
Encoding: 147 147 20
Width: 1592
Flags: HW
LayerCount: 2
Fore
SplineSet
651 1019 m 1
 820 1016 986 957 1151 843 c 1
 1064 774 l 1
 930 860 792 904 651 907 c 1
 651 1019 l 1
651 1249 m 1
 779 1247 901 1225 1019 1182 c 128
 1136 1139 1244 1079 1342 1002 c 1
 1258 931 l 1
 1171 996 1077 1046 974 1083 c 128
 870 1119 763 1138 651 1140 c 1
 651 1249 l 1
651 1471 m 1
 812 1469 966 1439 1113 1382 c 128
 1260 1325 1393 1246 1514 1144 c 1
 1432 1075 l 1
 1323 1165 1201 1235 1069 1285 c 128
 936 1335 797 1361 651 1363 c 1
 651 1471 l 1
689 802 m 0
 734 802 777 798 819 790 c 128
 861 781 899 770 931 756 c 128
 964 742 995 726 1024 708 c 128
 1054 690 1079 671 1101 651 c 128
 1123 631 1143 611 1161 591 c 128
 1179 571 1194 552 1207 534 c 128
 1219 516 1229 500 1237 486 c 128
 1246 472 1252 461 1255 453 c 2
 1261 441 l 1
 1261 391 l 2
 1259 386 1256 378 1252 369 c 128
 1248 359 1238 341 1223 314 c 128
 1207 287 1190 261 1171 236 c 128
 1153 212 1127 184 1094 154 c 128
 1062 124 1027 98 990 77 c 128
 953 55 908 37 855 22 c 128
 802 7 746 -0 687 -0 c 0
 482 -0 318 71 193 215 c 0
 141 276 104 336 82 395 c 1
 82 441 l 2
 84 446 87 452 92 461 c 128
 96 470 106 487 123 512 c 128
 140 537 158 561 178 583 c 128
 198 606 225 631 259 659 c 128
 294 687 331 711 370 731 c 128
 409 751 456 768 512 781 c 128
 568 795 627 802 689 802 c 0
648 742 m 1
 563 733 492 697 435 634 c 128
 378 571 349 496 349 410 c 0
 349 350 364 294 394 243 c 128
 423 192 464 151 515 122 c 128
 566 92 622 77 682 77 c 128
 743 77 799 92 850 122 c 128
 901 151 941 192 971 243 c 128
 1001 294 1016 350 1016 410 c 128
 1016 471 1001 526 971 577 c 128
 941 628 901 668 850 698 c 128
 799 727 743 742 682 742 c 2
 648 742 l 1
511 401 m 128
 511 448 528 488 561 522 c 128
 594 555 635 572 682 572 c 128
 729 572 769 555 803 522 c 128
 836 488 853 448 853 401 c 128
 853 354 836 313 803 280 c 128
 769 246 729 230 682 230 c 128
 635 230 594 246 561 280 c 128
 528 313 511 354 511 401 c 128
EndSplineSet
Validated: 1
EndChar

StartChar: uni0094
Encoding: 148 148 21
Width: 1340
Flags: HW
LayerCount: 2
Fore
SplineSet
231 148 m 1
 1068 148 l 1
 1068 1032 l 1
 785 1321 l 1
 231 1321 l 1
 231 148 l 1
81 1396 m 2
 81 1417 88 1434 103 1449 c 128
 117 1464 135 1471 156 1471 c 2
 816 1471 l 2
 837 1471 855 1463 870 1448 c 2
 1196 1115 l 2
 1211 1101 1218 1083 1218 1063 c 2
 1218 73 l 2
 1218 52 1211 35 1196 20 c 128
 1181 5 1164 -2 1143 -2 c 2
 156 -2 l 2
 135 -2 117 5 103 20 c 128
 88 35 81 52 81 73 c 2
 81 1396 l 2
766 1075 m 5
 1003 1075 l 1
 1003 975 l 1
 666 975 l 1
 666 1280 l 1
 766 1280 l 1
 766 1075 l 5
EndSplineSet
Validated: 1
EndChar

StartChar: uni0089
Encoding: 137 137 22
Width: 1536
Flags: HW
LayerCount: 2
Fore
SplineSet
1258 873 m 0
 1275 873 1290 868 1303 858 c 128
 1316 848 1325 836 1330 820 c 0
 1348 760 1357 699 1357 636 c 0
 1357 550 1340 467 1306 389 c 128
 1273 310 1227 243 1171 186 c 128
 1114 129 1046 84 968 50 c 128
 889 16 806 -0 720 -0 c 128
 634 -0 551 16 473 50 c 128
 394 84 327 129 270 186 c 128
 213 243 168 310 134 389 c 128
 100 467 84 550 84 636 c 0
 84 739 107 836 153 926 c 128
 199 1016 263 1090 343 1150 c 128
 423 1209 513 1247 612 1264 c 0
 617 1264 621 1265 625 1265 c 0
 646 1265 663 1257 678 1243 c 128
 693 1228 700 1210 700 1190 c 0
 700 1171 694 1155 682 1141 c 128
 670 1127 656 1119 638 1116 c 0
 562 1103 493 1074 432 1029 c 128
 370 983 322 926 287 858 c 128
 251 789 234 715 234 636 c 0
 234 570 247 507 272 447 c 128
 298 387 332 335 376 292 c 128
 419 248 471 214 531 188 c 128
 591 162 654 150 720 150 c 128
 786 150 849 162 909 188 c 128
 969 214 1021 248 1064 292 c 128
 1108 335 1142 387 1168 447 c 128
 1194 507 1207 570 1207 636 c 0
 1207 684 1200 731 1186 777 c 0
 1184 784 1183 791 1183 798 c 0
 1183 819 1190 837 1205 851 c 128
 1220 866 1237 873 1258 873 c 0
1055 1469 m 0
 1136 1469 1206 1439 1265 1381 c 128
 1323 1323 1352 1253 1352 1171 c 0
 1352 1123 1341 1077 1319 1035 c 128
 1296 993 1266 958 1228 930 c 1
 1228 929 l 1
 630 487 l 1
 763 1235 l 1
 764 1235 l 1
 779 1302 814 1358 868 1402 c 128
 922 1446 985 1469 1055 1469 c 0
1055 1319 m 128
 1014 1319 979 1304 950 1276 c 128
 922 1247 907 1212 907 1171 c 128
 907 1130 922 1095 950 1067 c 128
 979 1038 1014 1024 1055 1024 c 128
 1096 1024 1131 1038 1159 1067 c 128
 1188 1095 1202 1130 1202 1171 c 128
 1202 1212 1188 1247 1159 1276 c 128
 1131 1304 1096 1319 1055 1319 c 128
EndSplineSet
Validated: 1
EndChar

StartChar: uni0095
Encoding: 149 149 24
Width: 1727
Flags: HW
LayerCount: 2
Fore
SplineSet
361 1039 m 0
 361 1020 366 989 374 944 c 1
 351 924 l 2
 300 882 259 828 230 764 c 128
 200 700 185 631 185 557 c 0
 185 494 196 434 218 377 c 128
 241 320 270 271 308 231 c 128
 345 190 390 158 441 134 c 128
 492 110 545 98 601 98 c 2
 1265 105 l 2
 1328 106 1383 135 1428 194 c 128
 1474 252 1497 322 1497 403 c 0
 1497 456 1486 504 1465 549 c 128
 1444 594 1415 630 1380 657 c 2
 1345 684 l 1
 1366 723 l 2
 1393 772 1407 825 1407 882 c 0
 1407 936 1395 986 1372 1031 c 128
 1349 1076 1318 1112 1280 1137 c 0
 1242 1163 1201 1176 1157 1176 c 0
 1122 1176 1086 1165 1049 1144 c 2
 998 1115 l 1
 976 1169 l 2
 952 1228 914 1276 862 1313 c 128
 811 1350 753 1369 690 1371 c 2
 681 1371 l 2
 623 1371 570 1356 521 1327 c 128
 472 1297 433 1257 404 1206 c 128
 376 1155 361 1099 361 1039 c 0
681 1474 m 2
 758 1474 829 1454 894 1415 c 128
 959 1376 1010 1323 1047 1257 c 1
 1084 1272 1120 1279 1157 1279 c 0
 1222 1279 1282 1260 1338 1223 c 0
 1391 1187 1433 1139 1463 1079 c 128
 1494 1019 1510 953 1510 882 c 0
 1510 822 1498 765 1475 711 c 1
 1514 673 1545 627 1567 574 c 128
 1589 520 1600 463 1600 403 c 0
 1600 335 1586 271 1558 212 c 128
 1530 153 1491 105 1441 67 c 128
 1390 30 1334 8 1272 2 c 2
 1270 2 l 1
 1221 1 1150 1 1060 -1 c 128
 969 -2 886 -3 812 -3 c 128
 737 -4 667 -5 601 -5 c 0
 530 -5 462 9 398 39 c 128
 333 69 278 110 232 160 c 128
 186 211 150 271 123 340 c 128
 95 409 82 482 82 557 c 0
 82 641 98 719 130 793 c 128
 162 867 206 931 262 983 c 1
 260 1003 258 1021 258 1039 c 0
 258 1111 275 1179 307 1242 c 128
 339 1305 384 1357 441 1397 c 128
 497 1438 560 1462 630 1471 c 1
 630 1474 l 1
 681 1474 l 2
1089 303 m 1
 836 303 l 1
 584 303 l 1
 710 504 l 1
 836 706 l 1
 963 504 l 1
 1089 303 l 1
393 760 m 1
 1187 956 l 1
 1223 810 l 1
 429 614 l 1
 393 760 l 1
EndSplineSet
Validated: 1
EndChar

StartChar: uni0096
Encoding: 150 150 25
Width: 1622
Flags: HW
LayerCount: 2
Fore
SplineSet
995 1476 m 1
 1180 1476 l 1
 1180 1138 l 1
 1238 1117 1286 1082 1322 1031 c 128
 1359 980 1377 923 1377 860 c 128
 1377 797 1359 740 1322 690 c 128
 1286 639 1238 603 1180 583 c 1
 1180 5 l 1
 995 5 l 1
 995 580 l 1
 935 599 886 635 848 686 c 128
 809 738 790 796 790 860 c 128
 790 925 809 983 848 1034 c 128
 886 1086 935 1121 995 1140 c 1
 995 1476 l 1
1084 998 m 128
 1045 998 1013 985 986 958 c 128
 959 931 946 899 946 860 c 128
 946 822 959 789 986 762 c 128
 1013 736 1045 722 1084 722 c 128
 1122 722 1155 736 1182 762 c 128
 1208 789 1222 822 1222 860 c 128
 1222 899 1208 931 1182 958 c 128
 1155 985 1122 998 1084 998 c 128
1373 1325 m 1
 1522 1305 l 1
 1521 1300 1520 1295 1519 1287 c 128
 1518 1280 1514 1265 1508 1243 c 128
 1503 1221 1496 1198 1489 1176 c 128
 1482 1154 1471 1128 1457 1098 c 128
 1444 1068 1429 1040 1412 1014 c 1
 1388 1063 1353 1105 1308 1139 c 1
 1317 1157 1325 1176 1333 1195 c 128
 1341 1214 1347 1232 1352 1246 c 128
 1356 1261 1360 1275 1364 1287 c 128
 1367 1300 1369 1309 1371 1316 c 2
 1373 1325 l 1
543 1060 m 0
 602 1059 670 1037 747 995 c 0
 747 995 748 994 748 994 c 128
 748 993 749 993 749 993 c 0
 734 949 727 901 727 851 c 0
 727 851 727 849 727 846 c 128
 726 843 727 841 727 841 c 1
 723 843 719 846 712 850 c 128
 706 853 702 856 699 858 c 128
 695 859 691 862 685 865 c 0
 664 877 648 885 638 890 c 128
 627 895 614 901 597 907 c 128
 580 912 565 915 553 915 c 128
 541 915 526 913 510 909 c 128
 493 905 475 898 457 888 c 0
 418 867 382 819 351 744 c 128
 319 669 294 583 275 485 c 0
 265 432 256 365 247 284 c 128
 239 204 233 136 230 82 c 2
 225 1 l 1
 84 8 l 1
 98 218 117 388 142 518 c 0
 150 562 159 602 168 639 c 128
 177 675 189 714 203 757 c 128
 218 799 234 836 251 868 c 128
 268 900 289 930 314 959 c 128
 339 987 366 1009 396 1025 c 0
 439 1048 484 1060 532 1060 c 0
 536 1060 539 1060 543 1060 c 0
EndSplineSet
Validated: 1
EndChar
